<?xml version="1.0" encoding="iso-8859-1"?>
<!-- Generator: Adobe Illustrator 19.0.0, SVG Export Plug-In . SVG Version: 6.00 Build 0)  -->
<svg version="1.1" id="Capa_1" xmlns="http://www.w3.org/2000/svg" xmlns:xlink="http://www.w3.org/1999/xlink" x="0px" y="0px"
	 viewBox="0 0 512.001 512.001" style="enable-background:new 0 0 512.001 512.001;" xml:space="preserve">
<g>
	<g>
		<path d="M348.691,279.541c15.676,0,30.087,7.912,38.549,21.165l4.445,6.962l8.25,0.001c0.017,0,0.034,0,0.05,0
			c23.061,0,41.901-18.743,42.009-41.806l0.586-126.21l-127.926-0.764c-4.204-0.007-7.899-2.231-9.977-5.56
			c16.664-14.312,26.348-35.112,26.348-57.47c0-20.93-8.339-40.418-23.482-54.874C292.407,6.535,272.535-0.88,251.574,0.083
			c-38.968,1.808-70.686,33.765-72.208,72.754c-0.907,23.213,9,45.538,26.339,60.51c-2.05,3.345-5.721,5.6-9.908,5.65
			l-126.375-0.909v373.912H441.09l0.732-126.922c0.133-22.957-18.437-41.904-41.335-42.237l-8.8-0.005l-4.445,6.962
			c-8.858,13.872-23.961,21.755-40.395,21.128c-23.48-0.918-42.725-20.016-43.814-43.48c-0.586-12.646,3.885-24.634,12.591-33.753
			C324.335,284.567,336.079,279.541,348.691,279.541z"/>
	</g>
</g>
<g>
</g>
<g>
</g>
<g>
</g>
<g>
</g>
<g>
</g>
<g>
</g>
<g>
</g>
<g>
</g>
<g>
</g>
<g>
</g>
<g>
</g>
<g>
</g>
<g>
</g>
<g>
</g>
<g>
</g>
</svg>
